# xmcd
#
# Track frame offsets: 
#        150
#        14532
#        26717
#        42771
#        59397
#        74694
#        90849
#        103930
#        120178
#        135811
#
# Disc length: 1978 seconds
#
# Revision: 0
# Processed by: cddbd v1.5.2PL0 Copyright (c) Steve Scherf et al.
# Submitted via: ExactAudioCopy v0.95a5
#
DISCID=7a07b80a
DTITLE=Exile - Number One Hits
DYEAR=2002
DGENRE=Country
TTITLE0=Woke Up In Love
TTITLE1=I Could Get Used To You
TTITLE2=Kiss You All Over
TTITLE3=Hang Onto Your Heart
TTITLE4=I Don't Want To Be A Memory
TTITLE5=She's A Miracle
TTITLE6=It'll Be Me
TTITLE7=She's Too Good To Be True
TTITLE8=Crazy For Your Love
TTITLE9=Give Me One More Chance
EXTD=
EXTT0=
EXTT1=
EXTT2=
EXTT3=
EXTT4=
EXTT5=
EXTT6=
EXTT7=
EXTT8=
EXTT9=
PLAYORDER=
